<mxfile host="Electron" modified="2024-07-24T01:39:27.714Z" agent="Mozilla/5.0 (Macintosh; Intel Mac OS X 10_15_7) AppleWebKit/537.36 (KHTML, like Gecko) draw.io/24.6.4 Chrome/124.0.6367.207 Electron/30.0.6 Safari/537.36" etag="yZ_0lqund3lCyUHyHnsi" version="24.6.4" type="device">
  <diagram name="第 1 页" id="D4SrD6-18mNLNMA_aFoT">
    <mxGraphModel dx="708" dy="512" grid="1" gridSize="10" guides="1" tooltips="1" connect="1" arrows="1" fold="1" page="1" pageScale="1" pageWidth="827" pageHeight="1169" math="0" shadow="0">
      <root>
        <mxCell id="0" />
        <mxCell id="1" parent="0" />
        <mxCell id="_WghgECLSdFf_ZVq0MTW-5" value="" style="edgeStyle=orthogonalEdgeStyle;rounded=0;orthogonalLoop=1;jettySize=auto;html=1;" edge="1" parent="1" source="_WghgECLSdFf_ZVq0MTW-2" target="_WghgECLSdFf_ZVq0MTW-3">
          <mxGeometry relative="1" as="geometry" />
        </mxCell>
        <mxCell id="_WghgECLSdFf_ZVq0MTW-10" value="" style="edgeStyle=orthogonalEdgeStyle;rounded=0;orthogonalLoop=1;jettySize=auto;html=1;strokeColor=#FF9999;" edge="1" parent="1" source="_WghgECLSdFf_ZVq0MTW-2" target="_WghgECLSdFf_ZVq0MTW-9">
          <mxGeometry relative="1" as="geometry" />
        </mxCell>
        <mxCell id="_WghgECLSdFf_ZVq0MTW-2" value="问题" style="ellipse;whiteSpace=wrap;html=1;fillColor=#dae8fc;strokeColor=#6c8ebf;" vertex="1" parent="1">
          <mxGeometry x="170" y="250" width="120" height="50" as="geometry" />
        </mxCell>
        <mxCell id="_WghgECLSdFf_ZVq0MTW-6" value="" style="edgeStyle=orthogonalEdgeStyle;rounded=0;orthogonalLoop=1;jettySize=auto;html=1;" edge="1" parent="1" source="_WghgECLSdFf_ZVq0MTW-3" target="_WghgECLSdFf_ZVq0MTW-4">
          <mxGeometry relative="1" as="geometry" />
        </mxCell>
        <mxCell id="_WghgECLSdFf_ZVq0MTW-3" value="问答模型" style="rounded=1;whiteSpace=wrap;html=1;fillColor=#fff2cc;strokeColor=#d6b656;" vertex="1" parent="1">
          <mxGeometry x="370" y="245" width="120" height="60" as="geometry" />
        </mxCell>
        <mxCell id="_WghgECLSdFf_ZVq0MTW-4" value="回答" style="ellipse;whiteSpace=wrap;html=1;fillColor=#d5e8d4;strokeColor=#82b366;" vertex="1" parent="1">
          <mxGeometry x="570" y="250" width="120" height="50" as="geometry" />
        </mxCell>
        <mxCell id="_WghgECLSdFf_ZVq0MTW-7" value="知识库" style="shape=cylinder3;whiteSpace=wrap;html=1;boundedLbl=1;backgroundOutline=1;size=15;fillColor=#ffe6cc;strokeColor=#d79b00;" vertex="1" parent="1">
          <mxGeometry x="200" y="505" width="60" height="80" as="geometry" />
        </mxCell>
        <mxCell id="_WghgECLSdFf_ZVq0MTW-8" value="" style="verticalLabelPosition=bottom;verticalAlign=top;html=1;shape=mxgraph.basic.layered_rect;dx=10;outlineConnect=0;whiteSpace=wrap;fillColor=#e1d5e7;strokeColor=#9673a6;" vertex="1" parent="1">
          <mxGeometry x="385" y="520" width="100" height="60" as="geometry" />
        </mxCell>
        <mxCell id="_WghgECLSdFf_ZVq0MTW-11" value="" style="edgeStyle=orthogonalEdgeStyle;rounded=0;orthogonalLoop=1;jettySize=auto;html=1;strokeColor=#FF9999;" edge="1" parent="1" source="_WghgECLSdFf_ZVq0MTW-9" target="_WghgECLSdFf_ZVq0MTW-7">
          <mxGeometry relative="1" as="geometry" />
        </mxCell>
        <mxCell id="_WghgECLSdFf_ZVq0MTW-15" value="转换成语义向量" style="edgeLabel;html=1;align=center;verticalAlign=middle;resizable=0;points=[];" vertex="1" connectable="0" parent="_WghgECLSdFf_ZVq0MTW-11">
          <mxGeometry x="-0.0218" relative="1" as="geometry">
            <mxPoint as="offset" />
          </mxGeometry>
        </mxCell>
        <mxCell id="_WghgECLSdFf_ZVq0MTW-9" value="嵌入模型" style="rounded=1;whiteSpace=wrap;html=1;fillColor=#fff2cc;strokeColor=#d6b656;" vertex="1" parent="1">
          <mxGeometry x="170" y="380" width="120" height="60" as="geometry" />
        </mxCell>
        <mxCell id="_WghgECLSdFf_ZVq0MTW-12" value="" style="endArrow=classic;html=1;rounded=0;exitX=1;exitY=0.5;exitDx=0;exitDy=0;exitPerimeter=0;entryX=0;entryY=0;entryDx=0;entryDy=25;entryPerimeter=0;strokeColor=#FF9999;" edge="1" parent="1" source="_WghgECLSdFf_ZVq0MTW-7" target="_WghgECLSdFf_ZVq0MTW-8">
          <mxGeometry width="50" height="50" relative="1" as="geometry">
            <mxPoint x="390" y="380" as="sourcePoint" />
            <mxPoint x="440" y="330" as="targetPoint" />
          </mxGeometry>
        </mxCell>
        <mxCell id="_WghgECLSdFf_ZVq0MTW-16" value="向量相关性搜索" style="edgeLabel;html=1;align=center;verticalAlign=middle;resizable=0;points=[];" vertex="1" connectable="0" parent="_WghgECLSdFf_ZVq0MTW-12">
          <mxGeometry x="-0.3997" y="1" relative="1" as="geometry">
            <mxPoint x="23" y="1" as="offset" />
          </mxGeometry>
        </mxCell>
        <mxCell id="_WghgECLSdFf_ZVq0MTW-13" value="相关知识" style="text;html=1;align=center;verticalAlign=middle;whiteSpace=wrap;rounded=0;" vertex="1" parent="1">
          <mxGeometry x="395" y="531" width="60" height="30" as="geometry" />
        </mxCell>
        <mxCell id="_WghgECLSdFf_ZVq0MTW-14" value="" style="endArrow=classic;html=1;rounded=0;exitX=0;exitY=0;exitDx=45;exitDy=0;exitPerimeter=0;entryX=0.5;entryY=1;entryDx=0;entryDy=0;strokeColor=#FF9999;" edge="1" parent="1" source="_WghgECLSdFf_ZVq0MTW-8" target="_WghgECLSdFf_ZVq0MTW-3">
          <mxGeometry width="50" height="50" relative="1" as="geometry">
            <mxPoint x="240" y="560" as="sourcePoint" />
            <mxPoint x="290" y="510" as="targetPoint" />
          </mxGeometry>
        </mxCell>
      </root>
    </mxGraphModel>
  </diagram>
</mxfile>
